{
    "asset": {
        "version": "2.0",
        "generator": "Open Asset Import Library (assimp v5.0.5eb040c7)"
    },
    "accessors": [
        {
            "bufferView": 0,
            "byteOffset": 0,
            "componentType": 5126,
            "count": 208,
            "type": "VEC3",
            "max": [
                41.23186111450195,
                -12.699999809265137,
                2.0
            ],
            "min": [
                26.525915145874025,
                -25.41192054748535,
                0.0
            ]
        },
        {
            "bufferView": 1,
            "byteOffset": 0,
            "componentType": 5126,
            "count": 208,
            "type": "VEC3",
            "max": [
                0.9954090118408203,
                0.9922778606414795,
                1.0
            ],
            "min": [
                -1.0,
                -0.9962913393974304,
                -1.0
            ]
        },
        {
            "bufferView": 2,
            "byteOffset": 0,
            "componentType": 5126,
            "count": 208,
            "type": "VEC2",
            "max": [
                1.0,
                1.0
            ],
            "min": [
                0.0,
                0.0
            ]
        },
        {
            "bufferView": 3,
            "byteOffset": 0,
            "componentType": 5125,
            "count": 1104,
            "type": "SCALAR",
            "max": [
                207
            ],
            "min": [
                0
            ]
        }
    ],
    "buffers": [
        {
            "byteLength": 11072,
            "uri": "result.bin"
        }
    ],
    "bufferViews": [
        {
            "buffer": 0,
            "byteOffset": 0,
            "byteLength": 2496,
            "target": 34962
        },
        {
            "buffer": 0,
            "byteOffset": 2496,
            "byteLength": 2496,
            "target": 34962
        },
        {
            "buffer": 0,
            "byteOffset": 4992,
            "byteLength": 1664,
            "target": 34962
        },
        {
            "buffer": 0,
            "byteOffset": 6656,
            "byteLength": 4416,
            "target": 34963
        }
    ],
    "materials": [
        {
            "name": "DefaultMaterial",
            "pbrMetallicRoughness": {
                "baseColorFactor": [
                    0.6000000238418579,
                    0.6000000238418579,
                    0.6000000238418579,
                    1.0
                ],
                "metallicFactor": 0.0
            }
        },
        {
            "name": "initialShadingGroup",
            "pbrMetallicRoughness": {
                "baseColorFactor": [
                    0.6000000238418579,
                    0.6000000238418579,
                    0.6000000238418579,
                    1.0
                ],
                "metallicFactor": 0.0
            }
        }
    ],
    "meshes": [
        {
            "name": "polySurface1",
            "primitives": [
                {
                    "mode": 4,
                    "material": 1,
                    "indices": 3,
                    "attributes": {
                        "POSITION": 0,
                        "NORMAL": 1,
                        "TEXCOORD_0": 2
                    }
                }
            ]
        }
    ],
    "nodes": [
        {
            "name": "input.obj",
            "children": [
                1,
                2
            ]
        },
        {
            "name": "default"
        },
        {
            "name": "polySurface1",
            "mesh": 0
        }
    ],
    "scenes": [
        {
            "nodes": [
                0
            ]
        }
    ],
    "scene": 0
}