<svg xmlns="http://www.w3.org/2000/svg" xmlns:xlink="http://www.w3.org/1999/xlink" width="93.317" height="96.5" viewBox="0 0 93.317 96.5">
  <defs>
    <linearGradient id="linear-gradient" y1="0.5" x2="1" y2="0.5" gradientUnits="objectBoundingBox">
      <stop offset="0" stop-color="#1c75bc"/>
      <stop offset="0.489" stop-color="#27aae1"/>
      <stop offset="1" stop-color="#875fea"/>
    </linearGradient>
  </defs>
  <g id="Group_1" data-name="Group 1" transform="translate(-436.509 -415.473)">
    <path id="Path_2288" data-name="Path 2288" d="M482.419,511.96l.165.008a1.58,1.58,0,0,0,.267,0l.089,0,.715-.032a45.209,45.209,0,0,0,5.72-.447l2.847-.431c.938-.2,1.866-.456,2.8-.689a42.45,42.45,0,0,0,5.466-1.8,22.583,22.583,0,0,0,2.626-1.166c.859-.421,1.728-.827,2.575-1.267a48.049,48.049,0,0,0,9.187-6.7,46.442,46.442,0,0,0,7.251-8.489c.5-.771.944-1.58,1.414-2.364l.691-1.183.343-.589.289-.619q.571-1.236,1.139-2.463c.183-.411.385-.813.552-1.229l.444-1.268.873-2.518c.3-.831.442-1.708.667-2.552.2-.853.414-1.7.6-2.543q.168-1.328.334-2.642l.158-1.308a10.1,10.1,0,0,0,.11-1.262q.025-1.19.051-2.368l.025-1.173.012-.583c.008-.3,0-.127,0-.214l0-.077-.01-.154-.021-.308q-.083-1.228-.166-2.44a44.375,44.375,0,0,0-5.192-17.263,43.553,43.553,0,0,0-9.249-11.882,44.492,44.492,0,0,0-9.428-6.534c-.9-.433-1.717-.84-2.5-1.186a6.51,6.51,0,1,0-.452.958c.7.434,1.434.923,2.232,1.433a48.2,48.2,0,0,1,8.228,7.231,44.49,44.49,0,0,1,7.522,11.758q.372.878.75,1.775c.243.6.421,1.235.636,1.857.194.631.449,1.246.6,1.9s.32,1.308.482,1.97c.078.332.172.659.237,1l.17,1.02q.177,1.019.358,2.055c.084.7.131,1.4.2,2.107a18.815,18.815,0,0,1,.136,2.138q.01,1.079.021,2.171l0,.273,0,.137v.04l-.043.542-.093,1.17q-.094,1.173-.188,2.36a7.222,7.222,0,0,1-.17,1.105l-.2,1.066-.4,2.141q-.305,1.092-.613,2.194c-.224.728-.36,1.487-.654,2.2l-.839,2.16-.417,1.085c-.157.355-.348.7-.52,1.047l-1.058,2.1-.265.526-.318.5-.635,1c-.431.662-.829,1.348-1.285,2l-1.47,1.886-.734.947c-.251.311-.545.586-.815.883l-1.641,1.765c-.535.6-1.189,1.087-1.776,1.641a43.733,43.733,0,0,1-7.934,5.616c-.727.368-1.471.7-2.2,1.061a17.624,17.624,0,0,1-2.242.982,35.482,35.482,0,0,1-4.662,1.5c-.794.193-1.579.43-2.377.6l-2.424.375a37.884,37.884,0,0,1-4.88.413l-.611.035-.076,0c.021,0-.012,0-.038,0h-.028l-.332-.016-1.325-.063-2.645-.113-2.309-.34a18.1,18.1,0,0,1-2.315-.4,38,38,0,0,1-4.64-1.3l-2.265-.785c-.733-.312-1.447-.665-2.17-.992a43.92,43.92,0,0,1-8.02-4.892,43.062,43.062,0,0,1-11.429-13.692,43.825,43.825,0,0,1-4.716-15.506q-.089-.953-.176-1.886c-.028-.3-.055-.595-.082-.889q-.008-.485-.016-.964c-.015-.645-.023-1.273,0-1.843.027-.587.009-1.16.062-1.748a40.508,40.508,0,0,1,.877-6.609,44.441,44.441,0,0,1,1.615-5.685,42.756,42.756,0,0,1,1.946-4.671c.3-.6.591-1.154.878-1.688h0a5.356,5.356,0,1,0-.966-.655c-.372.512-.751,1.056-1.137,1.644a43.574,43.574,0,0,0-7.07,25.253c.025.7-.015,1.407.063,2.116l.242,2.149q.128,1.088.257,2.2.235,1.091.474,2.2l.5,2.242.736,2.215c.253.743.494,1.5.767,2.249q.488,1.094.983,2.2a46.372,46.372,0,0,0,12.211,16.245,47.494,47.494,0,0,0,19.577,9.808,24.04,24.04,0,0,0,2.856.544l2.912.444,2.643.154,1.325.071Zm14.76-86.179A3.824,3.824,0,1,1,501,421.958,3.828,3.828,0,0,1,497.179,425.781Zm-48.979,7.7a2.673,2.673,0,1,1-2.673,2.674A2.676,2.676,0,0,1,448.2,433.476Z" fill="url(#linear-gradient)"/>
    <path id="Path_2289" data-name="Path 2289" d="M508.906,442.386a6.452,6.452,0,0,0-3.46,1,28.434,28.434,0,0,0-4.05-3,29.949,29.949,0,0,0-8.911-3.717c-.881-.19-1.751-.4-2.712-.526l-1.443-.2-1.352-.116a33.7,33.7,0,0,0-6.064.245,32.141,32.141,0,0,0-12.387,4.273,32.55,32.55,0,0,0-5.608,4.206c-.884.8-1.66,1.712-2.5,2.578-.755.935-1.493,1.9-2.207,2.884-.628,1.041-1.338,2.045-1.892,3.14l-.818,1.655-.4.834-.324.867a27.254,27.254,0,0,0-1.162,3.522l-.467,1.8c-.13.62-.216,1.275-.315,1.912s-.2,1.3-.256,1.908l-.078,1.688-.039.843-.02.422-.006.263.005.116.012.231.1,1.849a25.386,25.386,0,0,0,.46,3.66l.151.906c.068.3.154.593.23.889l.477,1.768a32.045,32.045,0,0,0,6.911,12.336,32.572,32.572,0,0,0,10.523,7.8l1.421.621a11.145,11.145,0,0,0,1.421.554c.964.3,1.892.653,2.843.869l2.808.567,2.806.285c.226.019.459.049.675.058l.625,0,1.229-.006,1.2-.006h.154l.077-.005.155-.012.308-.026.609-.053a32.472,32.472,0,0,0,4.5-.791,27.489,27.489,0,0,0,3.742-1.2,5.6,5.6,0,1,0-1.041-1.618c-.978.2-2.008.37-3.115.489a29.608,29.608,0,0,1-4.193.137l-1.038-.058-1.195-.127-1.223-.13-.622-.066c-.2-.031-.381-.081-.573-.121l-2.309-.5-2.4-.771c-.8-.289-1.584-.66-2.4-.98a8.626,8.626,0,0,1-1.186-.578l-1.179-.632a30.066,30.066,0,0,1-8.448-7.244c-.614-.742-1.118-1.579-1.7-2.358-.515-.828-.988-1.69-1.483-2.541-.391-.906-.843-1.789-1.2-2.715l-.49-1.411a10.04,10.04,0,0,1-.444-1.43,28.6,28.6,0,0,1-.955-5.951l-.072-1.519-.01-.19,0-.071.021-.392.047-.843.092-1.687c.059-.514.157-.956.228-1.438s.126-.942.223-1.424l.375-1.473a21.2,21.2,0,0,1,.925-2.887l.254-.714.325-.684.639-1.37c.427-.912,1-1.742,1.488-2.619a29.346,29.346,0,0,1,8.243-8.354,29.665,29.665,0,0,1,10.221-4.36,33.814,33.814,0,0,1,5.171-.662l1.357-.035,1.21.032c.794.012,1.625.115,2.412.193a31.726,31.726,0,0,1,8.457,2.316,34.473,34.473,0,0,1,3.838,2,6.481,6.481,0,1,0,4.776-2.1Zm-8.854,50.1a2.993,2.993,0,1,1-2.992,2.993A3,3,0,0,1,500.052,492.488Zm8.854-39.793a3.824,3.824,0,1,1,3.824-3.824A3.829,3.829,0,0,1,508.906,452.7Z" transform="translate(-3.705 -4.728)" fill="url(#linear-gradient)"/>
    <path id="Path_2290" data-name="Path 2290" d="M510.725,472.374l0-.037-.018-.295-.079-1.173a18.736,18.736,0,0,0-2.945-8.571,19.042,19.042,0,0,0-5.928-5.869,18.049,18.049,0,0,0-6.865-2.542,12.213,12.213,0,0,0-1.681-.172l-.819-.047c-.267-.015-.482.021-.721.028l-1.44.093c-.471.054-.926.122-1.361.214-.335.066-.648.147-.96.229v0a5.678,5.678,0,1,0,.613,2.554c0-.14-.012-.278-.022-.415h0c.189,0,.372,0,.566.008a17.564,17.564,0,0,1,4.987.987,16,16,0,0,1,8.9,7.707,17.128,17.128,0,0,1,1.186,3c.113.533.246,1.063.332,1.6.038.549.18,1.084.166,1.64l.022.829.007.192-.008.1-.036.5-.071,1.006c-.039.28-.092.5-.13.748a11.149,11.149,0,0,1-.353,1.552,15.911,15.911,0,0,1-.547,1.571,15.312,15.312,0,0,1-3.8,5.391,15.051,15.051,0,0,1-5.607,3.225l-.762.244-.777.16a11.593,11.593,0,0,1-1.556.246l-.389.049-.195.025c-.031,0,.189.005.082,0h-.085l-.114,0-.9.016c-.144,0-.311.009-.436,0l-.349-.025-.7-.029a16.23,16.23,0,0,1-5.549-1.52,17.213,17.213,0,0,1-4.216-2.83c-.272-.246-.529-.493-.773-.741l0,0a4.975,4.975,0,1,0-1.861.946h0a15.087,15.087,0,0,0,.808,1.343,17.548,17.548,0,0,0,4.172,4.35,18.226,18.226,0,0,0,6.665,3.061l1.044.2.531.091c.171.026.3.034.457.051l.9.094.113.012.057.006.028,0,.138,0,.26,0,.524,0h1.061c.355-.005.71-.066,1.069-.1l1.081-.124,1.077-.225a18.415,18.415,0,0,0,4.249-1.473c.691-.325,1.345-.735,2.019-1.118.621-.46,1.285-.878,1.871-1.4a19.933,19.933,0,0,0,5.608-7.581,22.011,22.011,0,0,0,.761-2.273,17.022,17.022,0,0,0,.5-2.408c.057-.416.126-.864.162-1.252l.03-1.009.015-.5,0-.126,0-.063C510.73,472.245,510.724,472.454,510.725,472.374Zm-27.9-12.555a3.03,3.03,0,1,1,3.03-3.03A3.034,3.034,0,0,1,482.828,459.818Zm-8.55,20.683a2.228,2.228,0,1,1,2.228-2.228A2.23,2.23,0,0,1,474.279,480.5Z" transform="translate(-7.647 -8.286)" fill="url(#linear-gradient)"/>
    <circle id="Ellipse_343" data-name="Ellipse 343" cx="7.902" cy="7.902" r="7.902" transform="matrix(0.987, -0.16, 0.16, 0.987, 472.939, 457.33)" fill="url(#linear-gradient)"/>
  </g>
</svg>
