<svg xmlns="http://www.w3.org/2000/svg" xmlns:xlink="http://www.w3.org/1999/xlink" width="137.832" height="92.472" viewBox="0 0 137.832 92.472">
  <defs>
    <linearGradient id="linear-gradient" y1="0.5" x2="0.609" y2="0.449" gradientUnits="objectBoundingBox">
      <stop offset="0" stop-color="#1c75bc"/>
      <stop offset="0.489" stop-color="#27aae1"/>
      <stop offset="1" stop-color="#875fea"/>
    </linearGradient>
  </defs>
  <path id="Union_1" data-name="Union 1" d="M-432.794,10085.35h45.065a46.489,46.489,0,0,1-1.25,9.33H-424.1v34.668a46.533,46.533,0,0,1-8.691,1.107Zm-12.259,43.9v-29.341h-33.111a47.29,47.29,0,0,1-1.734-5.93h26.052a3.842,3.842,0,0,0,3.411,2.095,3.864,3.864,0,0,0,3.862-3.858,3.865,3.865,0,0,0-3.862-3.862,3.856,3.856,0,0,0-3.594,2.488h-26.465a46.2,46.2,0,0,1-.507-5.493h45.067v45.105A46.642,46.642,0,0,1-445.053,10129.251Zm24.089-31.436h31.111a46.166,46.166,0,0,1-3.2,7.673h-20.6v6.192a3.443,3.443,0,0,0-1.884,3.058,3.456,3.456,0,0,0,3.452,3.449,3.454,3.454,0,0,0,3.45-3.449,3.441,3.441,0,0,0-1.882-3.058v-3.054h15.658a46.72,46.72,0,0,1-26.1,19.908Zm-35.933,26.871v-9.828a4.12,4.12,0,0,0,2.548-3.8,4.121,4.121,0,0,0-4.116-4.118,4.123,4.123,0,0,0-4.118,4.118,4.119,4.119,0,0,0,2.548,3.8v7.925a46.837,46.837,0,0,1-16.854-19.735h28.7v25.361A46.641,46.641,0,0,1-456.9,10124.687Zm42.526-9.948a2.287,2.287,0,0,1,2.286-2.285,2.287,2.287,0,0,1,2.283,2.285,2.287,2.287,0,0,1-2.283,2.283A2.287,2.287,0,0,1-414.372,10114.738Zm-46.82-3.684a2.728,2.728,0,0,1,2.726-2.727,2.728,2.728,0,0,1,2.726,2.727,2.728,2.728,0,0,1-2.726,2.726A2.728,2.728,0,0,1-461.192,10111.055Zm8.206-18.838a2.556,2.556,0,0,1,2.552-2.556,2.558,2.558,0,0,1,2.556,2.556,2.56,2.56,0,0,1-2.556,2.555A2.557,2.557,0,0,1-452.986,10092.217Zm64.7-13.9h-92.162a46.394,46.394,0,0,1,1.706-7.061h38.458a4.632,4.632,0,0,0,4.35,3.072,4.647,4.647,0,0,0,4.642-4.643,4.648,4.648,0,0,0-4.642-4.642,4.633,4.633,0,0,0-4.35,3.073H-477.6a46.55,46.55,0,0,1,5.357-9.677h37.882V10039a46.555,46.555,0,0,1,36.135,17.148l22.246-2.328-51.606,12.9,54.4-4.009-41.061,9.153,70.524,6.45Zm-50.723-8.631a3.077,3.077,0,0,1,3.074-3.071,3.076,3.076,0,0,1,3.072,3.071,3.077,3.077,0,0,1-3.072,3.074A3.078,3.078,0,0,1-439.006,10069.686Zm-30.772-14.384a46.543,46.543,0,0,1,32.277-16.186v16.186Z" transform="translate(481.516 -10038.5)" stroke="rgba(0,0,0,0)" stroke-miterlimit="10" stroke-width="1" fill="url(#linear-gradient)"/>
</svg>
