<svg width="21" height="24" viewBox="0 0 21 24" fill="none" xmlns="http://www.w3.org/2000/svg">
<path fill-rule="evenodd" clip-rule="evenodd" d="M10.1215 23.1333C9.7381 23.1333 9.37039 22.981 9.09927 22.7099C8.82816 22.4388 8.67585 22.0711 8.67585 21.6877L8.67585 4.93811L2.47103 11.1458C2.33661 11.2802 2.17704 11.3869 2.00142 11.4596C1.82581 11.5323 1.63758 11.5698 1.44749 11.5698C1.2574 11.5698 1.06917 11.5323 0.893557 11.4596C0.717938 11.3869 0.558367 11.2802 0.423954 11.1458C0.289541 11.0114 0.182919 10.8518 0.110176 10.6762C0.0374318 10.5006 -7.50645e-06 10.3124 -7.50871e-06 10.1223C-7.51098e-06 9.9322 0.0374318 9.74397 0.110176 9.56835C0.182919 9.39273 0.289541 9.23316 0.423954 9.09875L9.09798 0.42472C9.23227 0.29009 9.3918 0.183275 9.56744 0.110395C9.74307 0.0375144 9.93136 3.3551e-07 10.1215 3.29323e-07C10.3117 3.23136e-07 10.5 0.0375144 10.6756 0.110395C10.8512 0.183275 11.0108 0.29009 11.1451 0.42472L19.8191 9.09875C20.0905 9.37021 20.243 9.73838 20.243 10.1223C20.243 10.5062 20.0905 10.8744 19.8191 11.1458C19.5476 11.4173 19.1794 11.5698 18.7955 11.5698C18.4116 11.5698 18.0435 11.4173 17.772 11.1458L11.5672 4.93811L11.5672 21.6877C11.5672 22.0711 11.4149 22.4388 11.1438 22.7099C10.8726 22.981 10.5049 23.1333 10.1215 23.1333Z" fill="white"/>
</svg>
