<svg width="52" height="52" viewBox="0 0 52 52" fill="none" xmlns="http://www.w3.org/2000/svg">
<circle cx="26" cy="26" r="24.5" fill="transparent" stroke="bal" stroke-width="3"/>
<path fill-rule="evenodd" clip-rule="evenodd" d="M14 26.1216C14 25.7382 14.1523 25.3705 14.4234 25.0994C14.6945 24.8283 15.0622 24.676 15.4456 24.676L32.1952 24.676L25.9875 18.4711C25.8531 18.3367 25.7464 18.1772 25.6737 18.0015C25.601 17.8259 25.5635 17.6377 25.5635 17.4476C25.5635 17.2575 25.601 17.0693 25.6737 16.8937C25.7464 16.7181 25.8531 16.5585 25.9875 16.4241C26.1219 16.2897 26.2815 16.183 26.4571 16.1103C26.6327 16.0376 26.8209 16.0001 27.011 16.0001C27.2011 16.0001 27.3893 16.0376 27.565 16.1103C27.7406 16.183 27.9001 16.2897 28.0346 16.4241L36.7086 25.0981C36.8432 25.2324 36.95 25.3919 37.0229 25.5676C37.0958 25.7432 37.1333 25.9315 37.1333 26.1216C37.1333 26.3118 37.0958 26.5001 37.0229 26.6757C36.95 26.8514 36.8432 27.0109 36.7086 27.1452L28.0346 35.8192C27.7631 36.0907 27.3949 36.2432 27.011 36.2432C26.6271 36.2432 26.2589 36.0907 25.9875 35.8192C25.716 35.5477 25.5635 35.1796 25.5635 34.7957C25.5635 34.4118 25.716 34.0436 25.9875 33.7721L32.1952 27.5673L15.4456 27.5673C15.0622 27.5673 14.6945 27.415 14.4234 27.1439C14.1523 26.8728 14 26.5051 14 26.1216Z" fill="black"/>
</svg>
