<svg width="40" height="57" viewBox="0 0 40 57" fill="none" xmlns="http://www.w3.org/2000/svg">
<path d="M22.8545 36.7659V54.1501C22.8545 54.906 22.5538 55.6308 22.0185 56.1653C21.4831 56.6997 20.7571 57 20 57C19.2429 57 18.5169 56.6997 17.9815 56.1653C17.4462 55.6308 17.1455 54.906 17.1455 54.1501V36.7659C13.9318 37.4252 10.5889 36.959 7.67916 35.4459C4.76948 33.9328 2.47075 31.4651 1.16991 28.4582C-0.130927 25.4513 -0.354459 22.0887 0.536941 18.9366C1.42834 15.7844 3.38025 13.0351 6.06412 11.1513C6.77102 7.9877 8.53675 5.15906 11.0701 3.13187C13.6035 1.10468 16.7533 0 20 0C23.2467 0 26.3965 1.10468 28.9299 3.13187C31.4632 5.15906 33.229 7.9877 33.9359 11.1513C36.6198 13.0351 38.5717 15.7844 39.4631 18.9366C40.3545 22.0887 40.1309 25.4513 38.8301 28.4582C37.5292 31.4651 35.2305 33.9328 32.3208 35.4459C29.4112 36.959 26.0682 37.4252 22.8545 36.7659Z" fill="#7DCC40"/>
</svg>
