<svg width="22" height="19" viewBox="0 0 22 19" fill="none" xmlns="http://www.w3.org/2000/svg">
<path d="M21.0157 0.423618C20.7676 0.247034 20.4878 0.121901 20.1922 0.0553649C19.8966 -0.0111712 19.591 -0.0178064 19.2928 0.0358388C18.9947 0.0894839 18.7099 0.202358 18.4546 0.368014C18.1994 0.533669 17.9787 0.748861 17.8052 1.0013L9.04083 13.7352L3.29423 9.74166C2.83333 9.42093 2.26607 9.29959 1.71723 9.40435C1.1684 9.50911 0.682952 9.83138 0.367681 10.3003C0.0524103 10.7692 -0.0668567 11.3463 0.0361175 11.9046C0.139092 12.463 0.455872 12.9568 0.91677 13.2776L8.61978 18.6303C8.85702 18.795 9.12514 18.9082 9.40734 18.9627C9.68955 19.0172 9.97977 19.0119 10.2599 18.9471C10.5586 18.894 10.8441 18.7814 11.1 18.6158C11.3559 18.4502 11.5772 18.2348 11.7511 17.982L21.5839 3.69154C21.9343 3.18126 22.0713 2.5503 21.9647 1.93733C21.8581 1.32436 21.5166 0.779525 21.0154 0.422548" fill="#7DCC40"/>
</svg>
