<svg width="20" height="23" viewBox="0 0 20 23" fill="none" xmlns="http://www.w3.org/2000/svg">
<path d="M7.93146 9.58862C7.28003 9.58862 6.76575 10.1601 6.76575 10.8572C6.76575 11.5543 7.29146 12.1258 7.93146 12.1258C8.58289 12.1258 9.09718 11.5543 9.09718 10.8572C9.1086 10.1601 8.58289 9.58862 7.93146 9.58862ZM12.1029 9.58862C11.4515 9.58862 10.9372 10.1601 10.9372 10.8572C10.9372 11.5543 11.4629 12.1258 12.1029 12.1258C12.7543 12.1258 13.2686 11.5543 13.2686 10.8572C13.2686 10.1601 12.7543 9.58862 12.1029 9.58862Z" fill="#F4F4F4"/>
<path d="M17.6571 0H2.34286C1.05143 0 0 1.05143 0 2.35429V17.8057C0 19.1086 1.05143 20.16 2.34286 20.16H15.3029L14.6971 18.0457L16.16 19.4057L17.5429 20.6857L20 22.8571V2.35429C20 1.05143 18.9486 0 17.6571 0ZM13.2457 14.9257C13.2457 14.9257 12.8343 14.4343 12.4914 14C13.9886 13.5771 14.56 12.64 14.56 12.64C14.0914 12.9486 13.6457 13.1657 13.2457 13.3143C12.6743 13.5543 12.1257 13.7143 11.5886 13.8057C10.6098 13.9859 9.60595 13.9821 8.62857 13.7943C8.05477 13.682 7.49243 13.5175 6.94857 13.3029C6.66189 13.1926 6.38314 13.0628 6.11429 12.9143C6.08 12.8914 6.04571 12.88 6.01143 12.8571C5.98857 12.8457 5.97714 12.8343 5.96571 12.8229C5.76 12.7086 5.64571 12.6286 5.64571 12.6286C5.64571 12.6286 6.19429 13.5429 7.64571 13.9771C7.30286 14.4114 6.88 14.9257 6.88 14.9257C4.35429 14.8457 3.39429 13.1886 3.39429 13.1886C3.39429 9.50857 5.04 6.52571 5.04 6.52571C6.68571 5.29143 8.25143 5.32571 8.25143 5.32571L8.36571 5.46286C6.30857 6.05714 5.36 6.96 5.36 6.96C5.36 6.96 5.61143 6.82286 6.03429 6.62857C7.25714 6.09143 8.22857 5.94286 8.62857 5.90857C8.69714 5.89714 8.75429 5.88571 8.82286 5.88571C10.8047 5.61747 12.8202 5.99414 14.5714 6.96C14.5714 6.96 13.6686 6.10286 11.7257 5.50857L11.8857 5.32571C11.8857 5.32571 13.4514 5.29143 15.0971 6.52571C15.0971 6.52571 16.7429 9.50857 16.7429 13.1886C16.7429 13.1886 15.7714 14.8457 13.2457 14.9257Z" fill="#F4F4F4"/>
</svg>
