<svg width="40" height="45" viewBox="0 0 40 45" fill="none" xmlns="http://www.w3.org/2000/svg">
<path d="M15.518 18.7603C14.2435 18.7603 13.2373 19.8783 13.2373 21.2422C13.2373 22.6062 14.2659 23.7242 15.518 23.7242C16.7926 23.7242 17.7988 22.6062 17.7988 21.2422C17.8212 19.8783 16.7926 18.7603 15.518 18.7603ZM23.6795 18.7603C22.405 18.7603 21.3988 19.8783 21.3988 21.2422C21.3988 22.6062 22.4274 23.7242 23.6795 23.7242C24.9541 23.7242 25.9603 22.6062 25.9603 21.2422C25.9603 19.8783 24.9541 18.7603 23.6795 18.7603Z" fill="#7DCC40"/>
<path d="M34.5466 0H4.58385C2.05714 0 0 2.05714 0 4.60621V34.8373C0 37.3863 2.05714 39.4435 4.58385 39.4435H29.9404L28.7553 35.3068L31.6174 37.9677L34.323 40.472L39.1304 44.7205V4.60621C39.1304 2.05714 37.0733 0 34.5466 0ZM25.9155 29.2025C25.9155 29.2025 25.1106 28.241 24.4398 27.3913C27.3689 26.564 28.487 24.7304 28.487 24.7304C27.5702 25.3342 26.6981 25.759 25.9155 26.0497C24.7975 26.5193 23.7242 26.8323 22.6733 27.0112C20.7583 27.3638 18.7943 27.3562 16.882 26.9888C15.7593 26.7691 14.6591 26.4473 13.595 26.0273C13.0341 25.8116 12.4888 25.5576 11.9627 25.2671C11.8957 25.2224 11.8286 25.2 11.7615 25.1553C11.7168 25.1329 11.6944 25.1106 11.6721 25.0882C11.2696 24.8646 11.046 24.7081 11.046 24.7081C11.046 24.7081 12.1193 26.4969 14.959 27.3466C14.2882 28.1963 13.4609 29.2025 13.4609 29.2025C8.51925 29.046 6.64099 25.8037 6.64099 25.8037C6.64099 18.6037 9.86087 12.7677 9.86087 12.7677C13.0807 10.3528 16.1441 10.4199 16.1441 10.4199L16.3677 10.6882C12.3429 11.8509 10.487 13.6174 10.487 13.6174C10.487 13.6174 10.9789 13.3491 11.8062 12.9689C14.1988 11.918 16.0994 11.6273 16.882 11.5602C17.0161 11.5379 17.128 11.5155 17.2621 11.5155C21.1396 10.9907 25.0831 11.7277 28.5093 13.6174C28.5093 13.6174 26.7429 11.9404 22.9416 10.7776L23.2547 10.4199C23.2547 10.4199 26.318 10.3528 29.5379 12.7677C29.5379 12.7677 32.7578 18.6037 32.7578 25.8037C32.7578 25.8037 30.8571 29.046 25.9155 29.2025Z" fill="#7DCC40"/>
</svg>
