<svg width="62" height="57" viewBox="0 0 62 57" fill="none" xmlns="http://www.w3.org/2000/svg">
<path d="M19.9021 33.2918C18.4 33.2918 16.5225 32.5392 16.5225 31.0339C16.5225 29.5286 18.4 29.9049 19.9021 27.2707C19.9021 27.2707 26.6613 8.83099 13.1429 8.83099C-0.375511 8.83099 6.38369 27.2707 6.38369 27.2707C7.88573 29.9049 9.76329 29.5286 9.76329 31.0339C9.76329 32.5392 7.88573 33.2918 6.38369 33.2918C4.13062 33.6681 2.25307 33.2918 0 35.5497V57H18.7756C19.5266 50.6026 21.4041 37.4313 22.9062 34.0445L23.2817 33.6681C22.5307 33.2918 21.4041 33.2918 19.9021 33.2918Z" fill="#7DCC40"/>
<path d="M61.0141 32.4636C58.3166 29.4437 56.0045 29.8212 53.307 29.4437C51.3803 29.0662 49.0682 28.6887 49.0682 26.8013C49.0682 24.9139 51.3803 25.6689 53.307 22.2715C53.307 22.2715 61.3994 0 44.8293 0C27.8738 0.377483 35.9662 22.649 35.9662 22.649C37.893 25.6689 40.2051 25.2914 40.2051 26.8013C40.2051 28.6887 37.893 29.0662 35.9662 29.4437C32.498 29.8212 29.4152 29.4437 26.3324 35.106C24.791 38.5033 22.4789 57 22.4789 57H61.0141V32.4636Z" fill="#7DCC40"/>
</svg>
