<svg width="44" height="44" viewBox="0 0 44 44" fill="none" xmlns="http://www.w3.org/2000/svg">
<path fill-rule="evenodd" clip-rule="evenodd" d="M12.7793 0.12913C15.0743 0.0234782 15.806 0 21.6521 0C27.4982 0 28.2299 0.0254348 30.523 0.12913C32.816 0.232826 34.3812 0.598696 35.7508 1.12891C37.1849 1.67087 38.486 2.51804 39.5621 3.6137C40.6578 4.68783 41.503 5.98696 42.043 7.42304C42.5752 8.79261 42.9391 10.3578 43.0447 12.647C43.1504 14.9459 43.1739 15.6776 43.1739 21.5217C43.1739 27.3678 43.1484 28.0996 43.0447 30.3946C42.941 32.6837 42.5752 34.2489 42.043 35.6185C41.503 37.0548 40.6564 38.356 39.5621 39.4317C38.486 40.5274 37.1849 41.3726 35.7508 41.9126C34.3812 42.4448 32.816 42.8087 30.5269 42.9144C28.2299 43.02 27.4982 43.0435 21.6521 43.0435C15.806 43.0435 15.0743 43.018 12.7793 42.9144C10.4902 42.8107 8.92494 42.4448 7.55537 41.9126C6.11913 41.3725 4.81785 40.5259 3.74211 39.4317C2.6472 38.357 1.7999 37.0563 1.25928 35.6204C0.729067 34.2509 0.365154 32.6857 0.259502 30.3965C0.153849 28.0976 0.130371 27.3659 0.130371 21.5217C0.130371 15.6757 0.155806 14.9439 0.259502 12.6509C0.363197 10.3578 0.729067 8.79261 1.25928 7.42304C1.8007 5.98712 2.64865 4.68648 3.74407 3.61174C4.81828 2.51707 6.11825 1.66978 7.55342 1.12891C8.92298 0.598696 10.4882 0.234783 12.7773 0.12913H12.7793ZM30.3489 4.00304C28.0793 3.89935 27.3984 3.87783 21.6521 3.87783C15.9058 3.87783 15.2249 3.89935 12.9554 4.00304C10.856 4.09891 9.71733 4.44913 8.9582 4.74457C7.9545 5.13587 7.23646 5.59957 6.4832 6.35283C5.76916 7.04749 5.21964 7.89316 4.87494 8.82783C4.5795 9.58696 4.22928 10.7257 4.13341 12.825C4.02972 15.0946 4.0082 15.7754 4.0082 21.5217C4.0082 27.268 4.02972 27.9489 4.13341 30.2185C4.22928 32.3178 4.5795 33.4565 4.87494 34.2157C5.21928 35.1489 5.76907 35.9961 6.4832 36.6907C7.17776 37.4048 8.02494 37.9546 8.9582 38.2989C9.71733 38.5944 10.856 38.9446 12.9554 39.0404C15.2249 39.1441 15.9039 39.1657 21.6521 39.1657C27.4004 39.1657 28.0793 39.1441 30.3489 39.0404C32.4482 38.9446 33.5869 38.5944 34.346 38.2989C35.3497 37.9076 36.0678 37.4439 36.821 36.6907C37.5352 35.9961 38.0849 35.1489 38.4293 34.2157C38.7247 33.4565 39.0749 32.3178 39.1708 30.2185C39.2745 27.9489 39.296 27.268 39.296 21.5217C39.296 15.7754 39.2745 15.0946 39.1708 12.825C39.0749 10.7257 38.7247 9.58696 38.4293 8.82783C38.038 7.82413 37.5743 7.10609 36.821 6.35283C36.1263 5.63884 35.2807 5.08933 34.346 4.74457C33.5869 4.44913 32.4482 4.09891 30.3489 4.00304ZM18.9032 28.1563C20.4384 28.7954 22.1479 28.8816 23.7396 28.4003C25.3313 27.919 26.7066 26.9001 27.6305 25.5174C28.5544 24.1348 28.9696 22.4743 28.8052 20.8196C28.6409 19.1648 27.9071 17.6184 26.7293 16.4446C25.9784 15.6942 25.0706 15.1196 24.071 14.7622C23.0715 14.4049 22.0051 14.2735 20.9487 14.3777C19.8923 14.4819 18.8722 14.819 17.9617 15.3648C17.0513 15.9106 16.2731 16.6515 15.6834 17.5341C15.0936 18.4167 14.7068 19.419 14.5509 20.4691C14.3951 21.5191 14.4739 22.5906 14.7819 23.6064C15.0898 24.6223 15.6191 25.5573 16.3318 26.344C17.0444 27.1308 17.9226 27.7497 18.9032 28.1563ZM13.8299 13.6996C14.8572 12.6723 16.0767 11.8575 17.4188 11.3016C18.7609 10.7456 20.1994 10.4595 21.6521 10.4595C23.1048 10.4595 24.5433 10.7456 25.8854 11.3016C27.2276 11.8575 28.4471 12.6723 29.4743 13.6996C30.5015 14.7268 31.3163 15.9463 31.8723 17.2884C32.4282 18.6305 32.7143 20.069 32.7143 21.5217C32.7143 22.9745 32.4282 24.4129 31.8723 25.7551C31.3163 27.0972 30.5015 28.3167 29.4743 29.3439C27.3997 31.4185 24.586 32.584 21.6521 32.584C18.7182 32.584 15.9045 31.4185 13.8299 29.3439C11.7554 27.2693 10.5899 24.4556 10.5899 21.5217C10.5899 18.5879 11.7554 15.7741 13.8299 13.6996ZM35.1678 12.107C35.4223 11.8668 35.6261 11.5781 35.7671 11.2578C35.908 10.9375 35.9833 10.5922 35.9884 10.2423C35.9935 9.89235 35.9283 9.54498 35.7968 9.22072C35.6652 8.89645 35.4699 8.60187 35.2225 8.35442C34.975 8.10698 34.6805 7.9117 34.3562 7.78014C34.0319 7.64859 33.6845 7.58343 33.3346 7.58853C32.9847 7.59363 32.6394 7.66889 32.3191 7.80984C31.9988 7.95079 31.7101 8.15458 31.4699 8.40913C31.0029 8.90419 30.7473 9.56176 30.7572 10.2423C30.7671 10.9228 31.0418 11.5726 31.5231 12.0538C32.0043 12.5351 32.6541 12.8098 33.3346 12.8197C34.0151 12.8296 34.6727 12.574 35.1678 12.107Z" fill="#7DCC40"/>
</svg>
