<svg width="68" height="37" viewBox="0 0 68 37" fill="none" xmlns="http://www.w3.org/2000/svg">
<path d="M61.2 16.8182C60.3826 16.824 59.5729 16.9755 58.8098 17.2655L50.6566 10.6627C50.8572 9.94291 51 9.19618 51 8.40909C51 3.74709 47.2124 0 42.5 0C37.7876 0 34 3.74709 34 8.40909C34 9.74109 34.34 10.9823 34.8908 12.099L25.0002 23.6632C24.6043 23.5899 24.2027 23.5505 23.8 23.5455C23.1914 23.5455 22.6168 23.6464 22.0592 23.7944L13.345 15.1734C13.498 14.6251 13.6 14.0566 13.6 13.4545C13.6 9.72764 10.5672 6.72727 6.8 6.72727C3.0328 6.72727 0 9.72764 0 13.4545C0 17.1815 3.0328 20.1818 6.8 20.1818C7.4086 20.1818 7.9832 20.0809 8.5408 19.9329L17.255 28.5539C17.0916 29.1127 17.0058 29.691 17 30.2727C17 33.9996 20.0328 37 23.8 37C27.5672 37 30.6 33.9996 30.6 30.2727C30.6 29.4755 30.4368 28.7255 30.1818 28.0157L40.086 16.4381C40.8578 16.6601 41.6568 16.8182 42.5 16.8182C43.8418 16.8108 45.1624 16.4868 46.3522 15.873L54.5088 22.4758C54.4448 22.8291 54.4084 23.1867 54.4 23.5455C54.4 27.2724 57.4328 30.2727 61.2 30.2727C64.9672 30.2727 68 27.2724 68 23.5455C68 19.8185 64.9672 16.8182 61.2 16.8182Z" fill="#7DCC40"/>
</svg>
