<svg width="73" height="105" viewBox="0 0 73 105" fill="none" xmlns="http://www.w3.org/2000/svg">
<path fill-rule="evenodd" clip-rule="evenodd" d="M33.915 0.883848C32.6509 0.521485 31.1989 0.840616 30.1467 2.08629C24.6212 8.62771 18.8764 16.7318 13.9528 25.537C14.3487 25.9377 14.8853 26.3922 15.6113 26.898C17.4148 28.1546 20.128 29.5481 24.0541 31.1185C28.2825 32.8099 31.5095 34.8436 33.915 37.2071L33.915 0.883848ZM11.0553 30.9972C8.54236 36.0029 6.34512 41.1692 4.63936 46.3507C6.14343 51.3349 11.0927 56.8696 20.8371 60.1177C26.7415 62.0859 30.9705 65.4994 33.915 69.2551V52.0665C33.763 49.0901 33.203 46.5179 31.8702 44.2521C30.2906 41.5668 27.3959 38.9308 21.8211 36.7009C17.7079 35.0556 14.517 33.4634 12.1742 31.8311C11.7847 31.5598 11.4112 31.2821 11.0553 30.9972ZM2.33263 54.7397C5.89701 59.3675 11.5778 63.3689 18.9358 65.8215C25.1167 67.8819 28.9133 71.8981 31.161 75.9512C33.0554 79.3674 33.783 82.6906 33.915 84.6981V103.97C33.5176 104.085 33.0924 104.133 32.6503 104.102C23.2197 103.43 6.20618 99.4121 1.63025 76.0675C0.31803 69.3731 0.724158 62.1214 2.33263 54.7397ZM39.9274 104.087V86.1199C39.9565 85.6419 39.9575 85.1112 39.9274 84.5367V65.7632L39.9493 65.7616C39.9377 65.6 39.9303 65.4282 39.9274 65.2472V64.908C39.99 60.7911 42.3177 52.637 52.0961 48.7257C58.6248 46.1142 63.2518 42.5259 66.1811 38.4303C71.5957 51.0595 74.5033 64.2511 72.2003 75.8904C67.5422 99.4333 50.1951 103.443 40.629 104.105C40.3896 104.122 40.1552 104.115 39.9274 104.087ZM63.0576 31.7336C62.9122 32.0955 62.7499 32.4565 62.5702 32.8159C60.713 36.5303 56.8512 40.3481 49.8631 43.1434C45.5327 44.8755 42.3036 47.2817 39.9274 49.9377L39.9274 0.699843C41.043 0.559721 42.2349 0.939365 43.1402 1.99148C50.1 10.0797 57.4118 20.52 63.0576 31.7336Z" fill="url(#paint0_radial)"/>
<defs>
<radialGradient id="paint0_radial" cx="0" cy="0" r="1" gradientUnits="userSpaceOnUse" gradientTransform="translate(36.9215 107.931) rotate(-90) scale(84.4784 58.9218)">
<stop stop-color="#E2FF6F"/>
<stop offset="1" stop-color="#30A61C"/>
</radialGradient>
</defs>
</svg>
