<svg width="22" height="20" viewBox="0 0 22 20" fill="none" xmlns="http://www.w3.org/2000/svg">
<path d="M20.8389 8.01501H1.16111C0.519847 8.01501 0 8.69683 0 9.5379V9.6982C0 10.5393 0.519847 11.2211 1.16111 11.2211H20.8389C21.4802 11.2211 22 10.5393 22 9.6982V9.5379C22 8.69683 21.4802 8.01501 20.8389 8.01501Z" fill="white"/>
<path d="M20.8389 16.0305H1.16111C0.519847 16.0305 0 16.7123 0 17.5533V17.7136C0 18.5547 0.519847 19.2365 1.16111 19.2365H20.8389C21.4802 19.2365 22 18.5547 22 17.7136V17.5533C22 16.7123 21.4802 16.0305 20.8389 16.0305Z" fill="white"/>
<path d="M20.8389 0H1.16111C0.519847 0 0 0.681814 0 1.52287V1.68318C0 2.52424 0.519847 3.20605 1.16111 3.20605H20.8389C21.4802 3.20605 22 2.52424 22 1.68318V1.52287C22 0.681814 21.4802 0 20.8389 0Z" fill="white"/>
</svg>
