<svg width="1257" height="1378" viewBox="0 0 1257 1378" fill="none" xmlns="http://www.w3.org/2000/svg">
<path d="M631.5 31H1100.94C1184.92 31 1253 99.079 1253 183.059V183.059C1253 267.038 1184.92 335.117 1100.94 335.117H164.947C76.0585 335.117 4 407.176 4 496.064V496.064C4 584.953 76.0585 657.012 164.947 657.012H1073.01C1172.41 657.012 1253 737.598 1253 837.006V837.006C1253 936.414 1172.41 1017 1073.01 1017H167.5C77.2015 1017 4 1090.2 4 1180.5V1180.5C4 1270.8 77.2014 1344 167.5 1344H1083" stroke="#7DCC40" stroke-width="8" stroke-linecap="round" stroke-linejoin="round"/>
<path d="M618.932 49.2397C605.031 51.1227 587.29 38.2508 579.427 29.3403L634.05 32.5625C633.831 36.2662 632.709 47.3735 618.932 49.2397Z" fill="#7DCC40"/>
<path d="M620.925 13.9428C607.258 10.3911 588.343 21.2868 579.427 29.3404L634.05 32.5626C634.272 28.8006 634.47 17.4629 620.925 13.9428Z" fill="#7DCC40"/>
<path d="M1092.33 1327.35C1105.95 1323.98 1124.98 1334.86 1133.75 1342.87L1079.1 1345.56C1078.92 1341.85 1078.84 1330.69 1092.33 1327.35Z" fill="#7DCC40"/>
<path d="M1094.16 1362.65C1108.13 1364.71 1125.76 1351.84 1133.75 1342.87L1079.1 1345.56C1079.29 1349.32 1080.31 1360.62 1094.16 1362.65Z" fill="#7DCC40"/>
<path d="M370.85 345.486C373.45 359.271 361.514 377.655 353.023 385.968L353.413 331.252C357.123 331.279 368.274 331.825 370.85 345.486Z" fill="#7DCC40"/>
<path d="M335.498 345.323C332.658 359.155 344.518 377.481 353.023 385.968L353.413 331.252C349.645 331.225 338.312 331.614 335.498 345.323Z" fill="#7DCC40"/>
<path d="M820.85 674.486C823.45 688.271 811.514 706.655 803.023 714.968L803.413 660.252C807.123 660.279 818.274 660.825 820.85 674.486Z" fill="#7DCC40"/>
<path d="M785.498 674.323C782.658 688.155 794.518 706.481 803.023 714.968L803.413 660.252C799.645 660.225 788.312 660.614 785.498 674.323Z" fill="#7DCC40"/>
<path d="M372.85 1031.49C375.45 1045.27 363.514 1063.65 355.023 1071.97L355.413 1017.25C359.123 1017.28 370.274 1017.82 372.85 1031.49Z" fill="#7DCC40"/>
<path d="M337.498 1031.32C334.658 1045.16 346.518 1063.48 355.023 1071.97L355.413 1017.25C351.645 1017.23 340.312 1017.61 337.498 1031.32Z" fill="#7DCC40"/>
</svg>
