<svg width="645" height="1125" viewBox="0 0 645 1125" fill="none" xmlns="http://www.w3.org/2000/svg">
<path d="M269.355 156.204C268.252 170.188 251.915 184.802 241.542 190.6L256.257 137.898C259.83 138.896 270.448 142.344 269.355 156.204Z" fill="#7DCC40"/>
<path d="M235.28 146.782C228.915 159.387 235.559 180.18 241.542 190.6L256.257 137.898C252.627 136.884 241.589 134.29 235.28 146.782Z" fill="#7DCC40"/>
<path d="M324.734 551.835C319.091 564.678 298.855 573.103 287.152 575.164L318.388 530.239C321.434 532.357 330.326 539.107 324.734 551.835Z" fill="#7DCC40"/>
<path d="M295.656 531.727C285.498 541.535 284.93 563.357 287.152 575.165L318.388 530.239C315.294 528.088 305.724 522.005 295.656 531.727Z" fill="#7DCC40"/>
<path d="M597.938 330.673C603.102 343.715 594.863 364.027 588.099 373.798L578.121 319.998C581.769 319.321 592.821 317.746 597.938 330.673Z" fill="#7DCC40"/>
<path d="M563.194 337.207C563.026 351.326 578.141 367.075 588.099 373.798L578.121 319.998C574.416 320.685 563.362 323.213 563.194 337.207Z" fill="#7DCC40"/>
<path d="M386 314.571C386 152.971 279.5 128.571 200 128.571H5.5" stroke="#7DCC40" stroke-width="10" stroke-linecap="round"/>
<path d="M386 686C386 524.4 279.5 500 200 500H5.5" stroke="#7DCC40" stroke-width="10" stroke-linecap="round"/>
<path d="M386 503.571C386 341.971 492.5 317.571 572 317.571H640" stroke="#7DCC40" stroke-width="10" stroke-linecap="round"/>
<path d="M386 925C386 763.4 492.5 739 572 739H640" stroke="#7DCC40" stroke-width="10" stroke-linecap="round"/>
<path d="M200 839.571C262 834.238 386 863.971 386 1025.57" stroke="#7DCC40" stroke-width="10" stroke-linecap="round"/>
<path d="M386 94L386 1084" stroke="#7DCC40" stroke-width="10" stroke-linecap="round"/>
<path d="M491.717 767.565C500.658 778.374 499.099 800.238 495.685 811.621L469.571 763.537C472.831 761.766 482.855 756.853 491.717 767.565Z" fill="#7DCC40"/>
<path d="M460.692 784.516C464.895 797.997 484.138 808.303 495.686 811.621L469.571 763.537C466.259 765.336 456.527 771.155 460.692 784.516Z" fill="#7DCC40"/>
<path d="M286.355 870.204C285.252 884.188 268.915 898.802 258.542 904.6L273.257 851.898C276.83 852.895 287.448 856.344 286.355 870.204Z" fill="#7DCC40"/>
<path d="M252.28 860.782C245.915 873.387 252.559 894.18 258.542 904.6L273.257 851.898C269.627 850.884 258.589 848.29 252.28 860.782Z" fill="#7DCC40"/>
<path d="M367.639 1098.8C360.994 1088.06 361.795 1071.37 365.048 1057.49C366.467 1051.43 374.069 1051.46 376.266 1057.29L392.881 1101.33C394.246 1104.95 392.431 1109.15 388.597 1109.65C382.462 1110.44 374.072 1109.19 367.639 1098.8Z" fill="#7C6543"/>
<path d="M406.361 1098.06C412.409 1086.81 410.383 1070.18 406.091 1056.51C404.231 1050.59 396.634 1051.13 394.811 1057.06L380.951 1102.17C379.815 1105.86 381.889 1109.93 385.745 1110.22C392.022 1110.68 400.5 1108.95 406.361 1098.06Z" fill="#7C6543"/>
<path fill-rule="evenodd" clip-rule="evenodd" d="M383.828 0C383.581 0.166067 383.349 0.365292 383.138 0.597676C378.393 5.82947 373.238 12.8196 368.927 20.53C369.222 20.8291 369.623 21.1685 370.165 21.5462C371.511 22.4842 373.537 23.5244 376.467 24.6966C379.624 25.9592 382.032 27.4771 383.828 29.2414L383.828 0ZM366.764 24.6059C364.888 28.3425 363.248 32.199 361.975 36.0668C363.097 39.7874 366.792 43.9188 374.066 46.3434C378.473 47.8126 381.63 50.3607 383.828 53.1643V40.33C383.714 38.1097 383.296 36.1908 382.302 34.5003C381.123 32.4959 378.962 30.5282 374.8 28.8637C371.73 27.6355 369.348 26.447 367.599 25.2285C367.309 25.0259 367.03 24.8186 366.764 24.6059ZM360.253 42.3289C359.052 47.8391 358.749 53.2522 359.728 58.2494C363.303 76.4859 377.046 78.9223 383.828 79.2306V64.6937C383.73 63.1954 383.187 60.7137 381.772 58.1626C380.094 55.1371 377.26 52.1391 372.646 50.6011C367.154 48.7703 362.913 45.7834 360.253 42.3289ZM388.316 79.2109C395.328 78.8242 408.842 76.1297 412.406 58.1171C414.125 49.429 411.955 39.5821 407.913 30.155C405.727 33.212 402.273 35.8905 397.4 37.8398C390.087 40.7649 388.356 46.8688 388.316 49.9364V50.1559C388.318 50.2971 388.324 50.4309 388.332 50.5564L388.316 50.5576V64.5737C388.338 65.0008 388.338 65.3954 388.316 65.751L388.316 79.2109ZM405.582 25.1563C405.473 25.4262 405.352 25.6955 405.218 25.9637C403.832 28.7363 400.949 31.5862 395.733 33.6727C392.5 34.9658 390.09 36.762 388.316 38.7447L388.316 0.299991C388.415 0.387516 388.511 0.48126 388.603 0.581224C394.395 6.8735 400.792 15.642 405.582 25.1563Z" fill="url(#paint0_radial)"/>
<defs>
<radialGradient id="paint0_radial" cx="0" cy="0" r="1" gradientUnits="userSpaceOnUse" gradientTransform="translate(386.072 82.1542) rotate(-90) scale(64.7055 43.9829)">
<stop stop-color="#E2FF6F"/>
<stop offset="1" stop-color="#30A61C"/>
</radialGradient>
</defs>
</svg>
