<svg width="44" height="54" viewBox="0 0 44 54" fill="none" xmlns="http://www.w3.org/2000/svg">
<path d="M43.1136 6.91947L22.9039 0.123247C22.66 0.0410824 22.3329 0 22.0058 0C21.6787 0 21.3516 0.0410824 21.1077 0.123247L0.898076 6.91947C0.404432 7.0838 0 7.64721 0 8.16368V36.4754C0 36.9918 0.339009 37.6726 0.749388 37.9954L21.2505 53.7594C21.4586 53.9178 21.7263 54 21.9999 54C22.2735 54 22.547 53.9178 22.7493 53.7594L43.2504 37.9954C43.6607 37.6785 43.9997 36.9977 43.9997 36.4754V8.16368C44.0116 7.64721 43.6072 7.08966 43.1136 6.91947ZM32.86 16.9436L20.2156 34.1219C20.1267 34.242 20.0104 34.3397 19.876 34.407C19.7417 34.4743 19.5931 34.5094 19.4424 34.5094C19.2918 34.5094 19.1432 34.4743 19.0089 34.407C18.8745 34.3397 18.7582 34.242 18.6693 34.1219L11.1516 23.91C10.9256 23.599 11.1516 23.1647 11.5382 23.1647H14.8212C15.1245 23.1647 15.416 23.3114 15.5944 23.552L19.4424 28.7754L28.4172 16.5797C28.5957 16.3391 28.8812 16.1924 29.1904 16.1924H32.4735C32.86 16.1982 33.086 16.6325 32.86 16.9436Z" fill="#7DCC40"/>
</svg>
