<svg width="60" height="48" viewBox="0 0 60 48" fill="none" xmlns="http://www.w3.org/2000/svg">
<path d="M27.7499 28.8038C29.0999 29.7428 30.8998 29.7428 32.2497 28.8038L59.5121 12.9608C59.6741 12.8494 59.804 12.6975 59.889 12.5203C59.974 12.343 60.0111 12.1466 59.9965 11.9505C59.982 11.7544 59.9163 11.5656 59.806 11.4029C59.6957 11.2401 59.5448 11.1091 59.3681 11.0228L31.7547 0.41187C31.2094 0.14097 30.6087 0 29.9998 0C29.3909 0 28.7903 0.14097 28.2449 0.41187L0.63153 11.0228C0.454862 11.1091 0.303873 11.2401 0.19361 11.4029C0.0833475 11.5656 0.0176598 11.7544 0.00309291 11.9505C-0.011474 12.1466 0.0255885 12.343 0.110587 12.5203C0.195586 12.6975 0.325553 12.8494 0.487538 12.9608L27.7499 28.8038ZM59.3681 26.4338L51.9105 22.7348L34.7365 32.7158C33.3296 33.6428 31.6947 34.1288 29.9998 34.1288C28.3049 34.1288 26.67 33.6398 25.2631 32.7158L8.10109 22.7288L0.63153 26.4308C0.454862 26.517 0.303873 26.6481 0.19361 26.8108C0.0833475 26.9736 0.0176598 27.1624 0.00309291 27.3585C-0.011474 27.5545 0.0255885 27.751 0.110587 27.9282C0.195586 28.1055 0.325553 28.2574 0.487538 28.3688L27.7499 47.2957C29.0999 48.2347 30.8998 48.2347 32.2497 47.2957L59.5121 28.3688C59.6741 28.2578 59.8042 28.1062 59.8893 27.9291C59.9744 27.7521 60.0115 27.5558 59.9969 27.3599C59.9823 27.164 59.9166 26.9753 59.8062 26.8128C59.6959 26.6503 59.5448 26.5196 59.3681 26.4338Z" fill="#7DCC40"/>
</svg>
