<svg width="46" height="45" viewBox="0 0 46 45" fill="none" xmlns="http://www.w3.org/2000/svg">
<path d="M22.5869 0C10.1568 0 0.0869141 10.0713 0.0869141 22.5C0.0869141 34.9287 10.1582 45 22.5869 45C35.0171 45 45.0869 34.9287 45.0869 22.5C45.0869 10.0713 35.0156 0 22.5869 0ZM33.638 15.4147L29.9451 32.8166C29.6722 34.0505 28.9377 34.3495 27.9129 33.7689L22.2879 29.6231L19.5748 32.236C19.2758 32.535 19.0218 32.789 18.4411 32.789L18.8403 27.0639L29.2643 17.6458C29.7187 17.2466 29.1642 17.0202 28.5647 17.4194L15.6816 25.5295L10.1292 23.7963C8.92288 23.416 8.8953 22.59 10.3832 22.0094L32.0761 13.6437C33.0835 13.2808 33.9632 13.889 33.6366 15.4132L33.638 15.4147Z" fill="#7DCC40"/>
</svg>
