<svg width="23" height="23" viewBox="0 0 23 23" fill="none" xmlns="http://www.w3.org/2000/svg">
<path d="M11.5 0C5.14681 0 0 5.14755 0 11.5C0 17.8525 5.14755 23 11.5 23C17.8532 23 23 17.8525 23 11.5C23 5.14755 17.8525 0 11.5 0ZM17.1484 7.87861L15.2609 16.7729C15.1214 17.4036 14.746 17.5564 14.2222 17.2596L11.3472 15.1407L9.96048 16.4762C9.80765 16.629 9.67781 16.7588 9.38103 16.7588L9.58506 13.8326L14.9129 9.01897C15.1451 8.81494 14.8617 8.69919 14.5553 8.90323L7.97061 13.0484L5.13271 12.1625C4.51616 11.9682 4.50206 11.546 5.26255 11.2492L16.35 6.97345C16.8649 6.78797 17.3145 7.09884 17.1476 7.87787L17.1484 7.87861Z" fill="#F4F4F4"/>
</svg>
