<svg width="45" height="38" viewBox="0 0 45 38" fill="none" xmlns="http://www.w3.org/2000/svg">
<path d="M44.4682 5.19693C42.8345 5.92084 41.0795 6.40997 39.2345 6.63106C41.1382 5.49195 42.5625 3.69914 43.2415 1.58714C41.4529 2.64951 39.4954 3.39731 37.4541 3.79801C36.0814 2.33231 34.2631 1.36083 32.2817 1.03438C30.3003 0.707926 28.2665 1.04478 26.4961 1.99264C24.7257 2.9405 23.3178 4.44633 22.4909 6.27635C21.6641 8.10636 21.4645 10.1582 21.9232 12.1132C18.2991 11.9313 14.7538 10.9893 11.5173 9.34848C8.28085 7.70765 5.42554 5.40463 3.13672 2.58888C2.35411 3.93888 1.90411 5.5041 1.90411 7.17106C1.90324 8.6717 2.27278 10.1494 2.97996 11.4729C3.68714 12.7965 4.71008 13.925 5.95802 14.7584C4.51074 14.7124 3.09538 14.3213 1.82976 13.6178V13.7352C1.82962 15.8399 2.55765 17.8798 3.89034 19.5089C5.22302 21.1379 7.07827 22.2557 9.14128 22.6726C7.79869 23.0359 6.39107 23.0895 5.02476 22.8291C5.60682 24.6401 6.74062 26.2237 8.26744 27.3583C9.79425 28.4929 11.6376 29.1216 13.5395 29.1565C10.311 31.691 6.32367 33.0658 2.21911 33.0597C1.49203 33.0599 0.765563 33.0175 0.043457 32.9326C4.20982 35.6114 9.05978 37.0331 14.013 37.0276C30.7804 37.0276 39.9467 23.1402 39.9467 11.0958C39.9467 10.7045 39.9369 10.3093 39.9193 9.91801C41.7023 8.62861 43.2413 7.03194 44.4643 5.2028L44.4682 5.19693Z" fill="#7DCC40"/>
</svg>
