<svg width="591" height="259" viewBox="0 0 591 259" fill="none" xmlns="http://www.w3.org/2000/svg">
<g clip-path="url(#clip0)">
<path d="M371.514 79.4149H415.051" stroke="#3F3D56" stroke-width="2" stroke-miterlimit="10"/>
<path d="M319.648 128.855C322.003 122.515 322.344 116.76 320.41 115.999C318.476 115.239 314.999 119.761 312.644 126.1C310.289 132.439 309.948 138.195 311.882 138.955C313.817 139.716 317.293 135.194 319.648 128.855Z" fill="#2F2E41"/>
<path d="M530.558 254.334C558.944 254.334 581.956 251.113 581.956 247.139C581.956 243.166 558.944 239.945 530.558 239.945C502.172 239.945 479.16 243.166 479.16 247.139C479.16 251.113 502.172 254.334 530.558 254.334Z" fill="#3F3D56" fill-opacity="0.36"/>
<path d="M496.935 228.828L498.868 236.025L511.399 232.461L509.465 225.264L496.935 228.828Z" fill="#2F2E41"/>
<path d="M497.798 237.297C499.005 236.954 499.262 233.991 498.373 230.679C497.483 227.367 495.783 224.96 494.576 225.304C493.369 225.647 493.112 228.61 494.001 231.922C494.891 235.234 496.591 237.641 497.798 237.297Z" fill="#2F2E41"/>
<path d="M536.486 204.078C537.372 197.353 536.427 191.67 534.375 191.384C532.323 191.097 529.941 196.317 529.056 203.042C528.17 209.767 529.115 215.451 531.167 215.737C533.218 216.023 535.6 210.803 536.486 204.078Z" fill="#2F2E41"/>
<path d="M530.433 251.141C543.624 251.141 554.317 240.138 554.317 226.565C554.317 212.992 543.624 201.989 530.433 201.989C517.241 201.989 506.548 212.992 506.548 226.565C506.548 240.138 517.241 251.141 530.433 251.141Z" fill="#2F2E41"/>
<path d="M496.935 224.473L498.868 231.669L511.398 228.105L509.465 220.909L496.935 224.473Z" fill="#2F2E41"/>
<path d="M497.798 232.942C499.005 232.599 499.262 229.635 498.373 226.323C497.483 223.012 495.783 220.605 494.576 220.948C493.369 221.292 493.112 224.255 494.001 227.567C494.891 230.879 496.591 233.285 497.798 232.942Z" fill="#2F2E41"/>
<path d="M536.704 220.885C541.213 220.885 544.868 217.125 544.868 212.486C544.868 207.847 541.213 204.087 536.704 204.087C532.196 204.087 528.541 207.847 528.541 212.486C528.541 217.125 532.196 220.885 536.704 220.885Z" fill="white"/>
<path d="M539.315 211.575C540.818 211.575 542.036 210.322 542.036 208.776C542.036 207.229 540.818 205.976 539.315 205.976C537.812 205.976 536.594 207.229 536.594 208.776C536.594 210.322 537.812 211.575 539.315 211.575Z" fill="#3F3D56"/>
<path d="M558.015 243.453C566.854 242.998 573.623 234.491 573.135 224.453C572.647 214.415 565.086 206.646 556.247 207.101C547.408 207.557 546.021 214.696 546.509 224.734C546.998 234.772 549.176 243.908 558.015 243.453Z" fill="#7DCC40"/>
<path d="M520.671 216.166C519.233 216.286 517.807 215.813 516.708 214.851C515.608 213.889 514.925 212.517 514.809 211.037C514.693 209.557 515.152 208.09 516.087 206.958C517.021 205.827 518.355 205.124 519.793 205.004C522.789 204.754 523.606 207.202 523.848 210.284C524.091 213.367 523.667 215.917 520.671 216.166Z" fill="white"/>
<path d="M268.57 112.31H402.353L423.095 122.707L456.142 139.273L477.75 97.6463H538.895" stroke="#3F3D56" stroke-width="2" stroke-miterlimit="10"/>
<path d="M320.98 120.923C323.265 120.923 325.117 119.017 325.117 116.666C325.117 114.314 323.265 112.408 320.98 112.408C318.695 112.408 316.842 114.314 316.842 116.666C316.842 119.017 318.695 120.923 320.98 120.923Z" fill="#7DCC40"/>
<path d="M359.598 116.568C361.883 116.568 363.735 114.662 363.735 112.31C363.735 109.959 361.883 108.053 359.598 108.053C357.312 108.053 355.46 109.959 355.46 112.31C355.46 114.662 357.312 116.568 359.598 116.568Z" fill="#7DCC40"/>
<path d="M423.041 126.975C425.326 126.975 427.179 125.069 427.179 122.717C427.179 120.366 425.326 118.46 423.041 118.46C420.756 118.46 418.904 120.366 418.904 122.717C418.904 125.069 420.756 126.975 423.041 126.975Z" fill="#7DCC40"/>
<path d="M512.23 101.904C514.515 101.904 516.368 99.9975 516.368 97.6462C516.368 95.295 514.515 93.3889 512.23 93.3889C509.945 93.3889 508.092 95.295 508.092 97.6462C508.092 99.9975 509.945 101.904 512.23 101.904Z" fill="#7DCC40"/>
<path d="M469.015 118.46C471.3 118.46 473.152 116.554 473.152 114.203C473.152 111.851 471.3 109.945 469.015 109.945C466.73 109.945 464.877 111.851 464.877 114.203C464.877 116.554 466.73 118.46 469.015 118.46Z" fill="#7DCC40"/>
<path d="M382.888 185.469C385.352 185.469 387.349 183.414 387.349 180.879C387.349 178.344 385.352 176.289 382.888 176.289C380.424 176.289 378.427 178.344 378.427 180.879C378.427 183.414 380.424 185.469 382.888 185.469Z" stroke="#3F3D56" stroke-width="2" stroke-miterlimit="10"/>
<path d="M305.013 259C333.399 259 356.411 255.779 356.411 251.805C356.411 247.832 333.399 244.611 305.013 244.611C276.627 244.611 253.615 247.832 253.615 251.805C253.615 255.779 276.627 259 305.013 259Z" fill="#3F3D56" fill-opacity="0.36"/>
<path d="M302.233 241.228C315.424 241.228 326.117 230.225 326.117 216.653C326.117 203.08 315.424 192.077 302.233 192.077C289.041 192.077 278.348 203.08 278.348 216.653C278.348 230.225 289.041 241.228 302.233 241.228Z" fill="#2F2E41"/>
<path d="M298.605 235.94H291.348V249.317H298.605V235.94Z" fill="#2F2E41"/>
<path d="M313.117 235.94H305.861V249.317H313.117V235.94Z" fill="#2F2E41"/>
<path d="M297.395 251.805C300.735 251.805 303.442 250.761 303.442 249.472C303.442 248.184 300.735 247.139 297.395 247.139C294.056 247.139 291.348 248.184 291.348 249.472C291.348 250.761 294.056 251.805 297.395 251.805Z" fill="#2F2E41"/>
<path d="M311.908 251.494C315.247 251.494 317.954 250.45 317.954 249.161C317.954 247.873 315.247 246.828 311.908 246.828C308.568 246.828 305.861 247.873 305.861 249.161C305.861 250.45 308.568 251.494 311.908 251.494Z" fill="#2F2E41"/>
<path d="M302.837 218.83C307.346 218.83 311 215.07 311 210.431C311 205.792 307.346 202.031 302.837 202.031C298.329 202.031 294.674 205.792 294.674 210.431C294.674 215.07 298.329 218.83 302.837 218.83Z" fill="white"/>
<path d="M302.837 213.231C304.34 213.231 305.558 211.977 305.558 210.431C305.558 208.885 304.34 207.631 302.837 207.631C301.335 207.631 300.116 208.885 300.116 210.431C300.116 211.977 301.335 213.231 302.837 213.231Z" fill="#3F3D56"/>
<path d="M279.064 193.798C277.135 184.911 283.3 175.931 292.833 173.74C302.367 171.55 311.659 176.979 313.587 185.866C315.516 194.753 309.198 198.031 299.664 200.221C290.131 202.411 280.992 202.685 279.064 193.798Z" fill="#7DCC40"/>
<path d="M294.069 170.612C307.261 170.612 317.954 159.609 317.954 146.036C317.954 132.463 307.261 121.46 294.069 121.46C280.878 121.46 270.185 132.463 270.185 146.036C270.185 159.609 280.878 170.612 294.069 170.612Z" fill="#2F2E41"/>
<path d="M290.441 165.323H283.185V178.7H290.441V165.323Z" fill="#2F2E41"/>
<path d="M304.954 165.323H297.698V178.7H304.954V165.323Z" fill="#2F2E41"/>
<path d="M289.232 181.189C292.572 181.189 295.279 180.144 295.279 178.855C295.279 177.567 292.572 176.522 289.232 176.522C285.892 176.522 283.185 177.567 283.185 178.855C283.185 180.144 285.892 181.189 289.232 181.189Z" fill="#2F2E41"/>
<path d="M303.744 180.877C307.084 180.877 309.791 179.833 309.791 178.544C309.791 177.256 307.084 176.211 303.744 176.211C300.405 176.211 297.698 177.256 297.698 178.544C297.698 179.833 300.405 180.877 303.744 180.877Z" fill="#2F2E41"/>
<path d="M294.674 148.213C299.183 148.213 302.837 144.453 302.837 139.814C302.837 135.175 299.183 131.415 294.674 131.415C290.166 131.415 286.511 135.175 286.511 139.814C286.511 144.453 290.166 148.213 294.674 148.213Z" fill="white"/>
<path d="M294.674 142.614C296.177 142.614 297.395 141.36 297.395 139.814C297.395 138.268 296.177 137.014 294.674 137.014C293.171 137.014 291.953 138.268 291.953 139.814C291.953 141.36 293.171 142.614 294.674 142.614Z" fill="#3F3D56"/>
<path d="M270.9 123.181C268.972 114.294 275.137 105.314 284.67 103.124C294.204 100.933 303.495 106.362 305.424 115.249C307.353 124.136 301.034 127.414 291.501 129.604C281.968 131.794 272.829 132.068 270.9 123.181Z" fill="#7DCC40"/>
<path d="M277.957 139.898C278.845 137.973 274.733 134.055 268.774 131.147C262.814 128.239 257.264 127.442 256.377 129.367C255.49 131.292 259.601 135.21 265.561 138.118C271.52 141.026 277.07 141.823 277.957 139.898Z" fill="#2F2E41"/>
<path d="M282.337 154.902C282.337 157.307 288.356 162.057 295.036 162.057C301.715 162.057 307.977 155.285 307.977 152.88C307.977 150.474 301.715 153.346 295.036 153.346C288.356 153.346 282.337 152.496 282.337 154.902Z" fill="white"/>
<path d="M544.346 175.674H506.212V195.634H544.346V175.674Z" fill="#7DCC40"/>
<path d="M541.361 178.915H503.228V198.875H541.361V178.915Z" stroke="#3F3D56" stroke-width="2" stroke-miterlimit="10"/>
<path d="M333.01 61.9064H322.126V73.1055H333.01V61.9064Z" fill="#51CB3E"/>
<path d="M330.289 58.1733H319.405V69.3725H330.289V58.1733Z" stroke="#3F3D56" stroke-width="2" stroke-miterlimit="10"/>
<path d="M527.55 83.5176C540.742 83.5176 551.435 72.5146 551.435 58.9417C551.435 45.3688 540.742 34.3658 527.55 34.3658C514.359 34.3658 503.666 45.3688 503.666 58.9417C503.666 72.5146 514.359 83.5176 527.55 83.5176Z" fill="#2F2E41"/>
<path d="M536.775 90.4171L543.915 89.0872L541.599 75.9243L534.459 77.2542L536.775 90.4171Z" fill="#2F2E41"/>
<path d="M522.495 93.0784L529.635 91.7485L527.32 78.5857L520.179 79.9156L522.495 93.0784Z" fill="#2F2E41"/>
<path d="M526.286 95.8485C528.834 93.6278 530.244 91.0304 529.435 90.0471C528.625 89.0638 525.903 90.0669 523.355 92.2876C520.806 94.5083 519.397 97.1057 520.206 98.089C521.015 99.0723 523.737 98.0692 526.286 95.8485Z" fill="#2F2E41"/>
<path d="M540.268 93.244C542.817 91.0233 544.227 88.4259 543.417 87.4426C542.608 86.4593 539.886 87.4624 537.337 89.6831C534.789 91.9038 533.379 94.5011 534.189 95.4845C534.998 96.4678 537.72 95.4647 540.268 93.244Z" fill="#2F2E41"/>
<path d="M525.878 61.3297C530.387 61.3297 534.042 57.5692 534.042 52.9303C534.042 48.2915 530.387 44.531 525.878 44.531C521.37 44.531 517.715 48.2915 517.715 52.9303C517.715 57.5692 521.37 61.3297 525.878 61.3297Z" fill="white"/>
<path d="M522.523 52.7194C524.026 52.7194 525.244 51.4659 525.244 49.9196C525.244 48.3733 524.026 47.1198 522.523 47.1198C521.021 47.1198 519.802 48.3733 519.802 49.9196C519.802 51.4659 521.021 52.7194 522.523 52.7194Z" fill="#3F3D56"/>
<path d="M546.392 32.2058C546.751 23.1074 539.13 15.401 529.37 14.9931C519.61 14.5852 511.407 21.6302 511.048 30.7285C510.688 39.8269 517.473 41.8941 527.233 42.3021C536.993 42.71 546.033 41.3041 546.392 32.2058Z" fill="#7DCC40"/>
<path d="M517.137 57.2098C517.599 55.1332 512.763 52.2206 506.334 50.7044C499.905 49.1881 494.318 49.6424 493.856 51.719C493.393 53.7956 498.23 56.7082 504.659 58.2245C511.087 59.7407 516.674 59.2864 517.137 57.2098Z" fill="#2F2E41"/>
<path d="M564.022 65.2323C564.484 63.1557 559.648 60.2431 553.219 58.7269C546.79 57.2106 541.203 57.6649 540.741 59.7415C540.278 61.8181 545.115 64.7307 551.544 66.247C557.972 67.7632 563.559 67.3089 564.022 65.2323Z" fill="#2F2E41"/>
<path d="M534.11 68.6268C534.238 69.3504 534.225 70.0927 534.074 70.8113C533.922 71.53 533.635 72.2108 533.227 72.8151C532.82 73.4194 532.301 73.9352 531.7 74.3331C531.099 74.7311 530.428 75.0033 529.725 75.1343C529.022 75.2653 528.3 75.2525 527.602 75.0966C526.903 74.9407 526.242 74.6448 525.654 74.2258C525.067 73.8067 524.566 73.2728 524.179 72.6544C523.792 72.036 523.528 71.3453 523.4 70.6217C522.865 67.5786 525.152 66.5018 528.109 65.9509C531.067 65.4 533.575 65.5837 534.11 68.6268Z" fill="white"/>
<path d="M469.063 30.7977L496.576 52.5738" stroke="#3F3D56" stroke-width="2" stroke-miterlimit="10"/>
<path d="M456.063 42.3079C467.417 42.3079 476.622 32.8369 476.622 21.1539C476.622 9.47094 467.417 0 456.063 0C444.708 0 435.504 9.47094 435.504 21.1539C435.504 32.8369 444.708 42.3079 456.063 42.3079Z" fill="#51CB3E"/>
<path d="M527.521 209.918C528.407 203.193 527.462 197.509 525.41 197.223C523.358 196.937 520.977 202.157 520.091 208.882C519.205 215.607 520.15 221.29 522.202 221.576C524.254 221.862 526.635 216.643 527.521 209.918Z" fill="#2F2E41"/>
<path d="M274.419 248.78C276.705 248.78 278.557 246.874 278.557 244.523C278.557 242.171 276.705 240.265 274.419 240.265C272.134 240.265 270.282 242.171 270.282 244.523C270.282 246.874 272.134 248.78 274.419 248.78Z" fill="#7DCC40"/>
<path d="M342.081 239.537H331.196V250.736H342.081V239.537Z" fill="#51CB3E"/>
<path d="M331.259 251.269C333.544 251.269 335.397 249.362 335.397 247.011C335.397 244.66 333.544 242.754 331.259 242.754C328.974 242.754 327.122 244.66 327.122 247.011C327.122 249.362 328.974 251.269 331.259 251.269Z" fill="#7DCC40"/>
<path d="M393.283 83.5925C395.568 83.5925 397.421 81.6864 397.421 79.3352C397.421 76.9839 395.568 75.0778 393.283 75.0778C390.998 75.0778 389.145 76.9839 389.145 79.3352C389.145 81.6864 390.998 83.5925 393.283 83.5925Z" fill="#7DCC40"/>
<path d="M473.634 213.34C474.725 213.34 475.61 212.43 475.61 211.307C475.61 210.184 474.725 209.274 473.634 209.274C472.543 209.274 471.658 210.184 471.658 211.307C471.658 212.43 472.543 213.34 473.634 213.34Z" fill="#51CB3E"/>
<path d="M483.314 245.051V221.903" stroke="#3F3D56" stroke-width="2" stroke-miterlimit="10"/>
<path d="M483.314 225.176C485.071 225.176 486.496 223.711 486.496 221.903C486.496 220.095 485.071 218.629 483.314 218.629C481.557 218.629 480.133 220.095 480.133 221.903C480.133 223.711 481.557 225.176 483.314 225.176Z" fill="#3F3D56"/>
<path d="M483.314 236.17C483.314 236.17 482.86 226.112 473.543 227.281L483.314 236.17Z" fill="#3F3D56"/>
</g>
<path d="M270.523 112.379H136.642L115.885 122.635L82.8133 138.976L61.1899 97.9146H1.4054e-06" stroke="#3F3D56" stroke-width="2" stroke-miterlimit="10"/>
<path d="M163.992 117.484C166.277 117.484 168.13 115.578 168.13 113.227C168.13 110.876 166.277 108.97 163.992 108.97C161.707 108.97 159.854 110.876 159.854 113.227C159.854 115.578 161.707 117.484 163.992 117.484Z" fill="#7DCC40"/>
<path d="M229.317 117.484C231.602 117.484 233.455 115.578 233.455 113.227C233.455 110.876 231.602 108.97 229.317 108.97C227.032 108.97 225.179 110.876 225.179 113.227C225.179 115.578 227.032 117.484 229.317 117.484Z" fill="#7DCC40"/>
<path d="M119.417 125.381C121.702 125.381 123.555 123.474 123.555 121.123C123.555 118.772 121.702 116.866 119.417 116.866C117.132 116.866 115.28 118.772 115.28 121.123C115.28 123.474 117.132 125.381 119.417 125.381Z" fill="#7DCC40"/>
<path d="M33.3418 102.481C35.627 102.481 37.4794 100.575 37.4794 98.2238C37.4794 95.8725 35.627 93.9665 33.3418 93.9665C31.0567 93.9665 29.2042 95.8725 29.2042 98.2238C29.2042 100.575 31.0567 102.481 33.3418 102.481Z" fill="#7DCC40"/>
<defs>
<clipPath id="clip0">
<rect width="337.385" height="259" fill="white" transform="translate(253.615)"/>
</clipPath>
</defs>
</svg>
