<svg width="119" height="53" viewBox="0 0 119 53" fill="none" xmlns="http://www.w3.org/2000/svg">
<path d="M55.2909 38.1469H58.997L67.3797 18.2931H63.2324L57.1439 33.029L51.0554 18.2931H46.9082L55.2909 38.1469Z" fill="white"/>
<path d="M77.5172 17.7637C74.7376 17.7637 72.4434 18.7784 70.5463 20.7638C68.6933 22.7492 67.7668 25.264 67.7668 28.22C67.7668 31.176 68.6933 33.6908 70.5463 35.6762C72.4434 37.6616 74.7376 38.6763 77.5172 38.6763C80.0761 38.6763 82.2821 37.794 84.091 36.0733V38.1469H88.0617V18.2931H84.091V20.3667C82.2821 18.6461 80.0761 17.7637 77.5172 17.7637ZM82.238 23.6316C83.4292 24.8669 84.0027 26.4111 84.0027 28.22C84.0027 30.0289 83.4292 31.5731 82.238 32.8084C81.0909 34.0438 79.679 34.6615 77.9584 34.6615C76.2377 34.6615 74.8259 34.0438 73.6346 32.8084C72.4875 31.5731 71.914 30.0289 71.914 28.22C71.914 26.4111 72.4875 24.8669 73.6346 23.6316C74.8259 22.3962 76.2377 21.7786 77.9584 21.7786C79.679 21.7786 81.0909 22.3962 82.238 23.6316Z" fill="white"/>
<path d="M96.0808 38.1469V18.2931H92.1101V38.1469H96.0808ZM94.0954 9.29272C91.713 9.29272 90.61 12.1164 92.1983 13.7929C93.8748 15.3812 96.6985 14.2782 96.6985 11.8958C96.6985 10.4398 95.5514 9.29272 94.0954 9.29272Z" fill="white"/>
<path d="M100.146 38.1469H104.117V26.7641C104.117 23.8081 106.455 21.6021 109.456 21.6021C112.323 21.6021 114.529 23.7639 114.529 26.7199V38.1469H118.544V25.5728C118.544 23.3227 117.794 21.4697 116.294 20.0138C114.794 18.5137 112.897 17.7637 110.603 17.7637C107.779 17.7637 105.617 18.9108 104.117 21.1609V18.2931H100.146V38.1469Z" fill="white"/>
<path fill-rule="evenodd" clip-rule="evenodd" d="M16.5659 0C16.0749 0.20697 15.6197 0.529205 15.2399 0.966705C12.3025 4.35052 9.19946 8.66038 6.56552 13.3708C6.76389 13.5716 7.03273 13.7993 7.3965 14.0528C8.3 14.6823 9.65923 15.3804 11.626 16.1671C13.7443 17.0144 15.3608 18.0332 16.5659 19.2172L16.5659 0ZM5.11398 16.1062C3.85506 18.6139 2.7543 21.2021 1.89976 23.7979C2.65324 26.2948 5.13265 29.0675 10.0142 30.6947C12.9722 31.6807 15.0908 33.3908 16.5659 35.2723V26.6589C16.4896 25.1688 16.209 23.8811 15.5416 22.7465C14.7503 21.4014 13.3002 20.0808 10.5074 18.9637C8.44686 18.1395 6.8483 17.3418 5.67465 16.5241C5.4795 16.3881 5.2923 16.249 5.11398 16.1062ZM0.744169 28.0005C-0.061623 31.6985 -0.26508 35.3313 0.392295 38.685C2.79132 50.9238 12.0144 52.559 16.5659 52.7659V43.0099C16.5 42.0043 16.1356 40.3388 15.1862 38.6267C14.0602 36.5962 12.1582 34.5842 9.06177 33.5521C5.37568 32.3234 2.52979 30.3188 0.744169 28.0005ZM19.5779 52.7527C24.2838 52.4931 33.3536 50.6848 35.7454 38.5962C36.899 32.7654 35.4425 26.157 32.7301 19.8303C31.2626 21.8819 28.9447 23.6795 25.6741 24.9877C20.7664 26.9508 19.6051 31.0472 19.5779 33.106V33.2533C19.5792 33.348 19.583 33.4378 19.589 33.5221L19.5779 33.5229V42.9293C19.5929 43.216 19.5924 43.4808 19.5779 43.7195V52.7527ZM31.1653 16.4756C31.0925 16.6568 31.0113 16.8375 30.9213 17.0175C29.9909 18.8782 28.0563 20.7908 24.5555 22.1911C22.386 23.0589 20.7683 24.2644 19.5779 25.5951L19.5779 0.11705C19.9675 0.317895 20.3291 0.595183 20.6413 0.948913C24.2881 5.08094 28.1889 10.5637 31.1653 16.4756Z" fill="url(#paint0_radial)"/>
<defs>
<radialGradient id="paint0_radial" cx="0" cy="0" r="1" gradientUnits="userSpaceOnUse" gradientTransform="translate(18.0719 54.7129) rotate(-90) scale(43.0925 29.5177)">
<stop stop-color="#E2FF6F"/>
<stop offset="1" stop-color="#30A61C"/>
</radialGradient>
</defs>
</svg>
