<svg width="21" height="21" viewBox="0 0 21 21" fill="none" xmlns="http://www.w3.org/2000/svg">
<path fill-rule="evenodd" clip-rule="evenodd" d="M0.488824 0.509696C0.801911 0.196703 1.22649 0.0208725 1.6692 0.0208725C2.11191 0.0208725 2.53649 0.196703 2.84957 0.509696L10.017 7.6771L17.1844 0.509696C17.3384 0.350236 17.5226 0.223046 17.7263 0.135546C17.93 0.0480462 18.1491 0.0019894 18.3708 6.30375e-05C18.5924 -0.00186332 18.8123 0.0403789 19.0175 0.124326C19.2227 0.208272 19.4091 0.332242 19.5658 0.489001C19.7226 0.64576 19.8466 0.83217 19.9305 1.03735C20.0144 1.24253 20.0567 1.46238 20.0548 1.68406C20.0528 1.90575 20.0068 2.12482 19.9193 2.32852C19.8318 2.53221 19.7046 2.71644 19.5451 2.87045L12.3777 10.0378L19.5451 17.2053C19.8493 17.5201 20.0175 17.9419 20.0137 18.3796C20.0099 18.8174 19.8343 19.2361 19.5248 19.5457C19.2152 19.8552 18.7965 20.0308 18.3587 20.0346C17.921 20.0384 17.4993 19.8701 17.1844 19.566L10.017 12.3986L2.84957 19.566C2.53469 19.8701 2.11296 20.0384 1.67521 20.0346C1.23746 20.0308 0.81871 19.8552 0.509161 19.5457C0.199612 19.2361 0.0240258 18.8174 0.0202219 18.3796C0.0164179 17.9419 0.1847 17.5201 0.488824 17.2053L7.65623 10.0378L0.488824 2.87045C0.17583 2.55736 0 2.13278 0 1.69007C0 1.24737 0.17583 0.822784 0.488824 0.509696Z" fill="white"/>
</svg>
